<?xml version="1.0" standalone="no"?>
<!DOCTYPE svg PUBLIC "-//W3C//DTD SVG 20010904//EN"
 "http://www.w3.org/TR/2001/REC-SVG-20010904/DTD/svg10.dtd">
<svg version="1.0" xmlns="http://www.w3.org/2000/svg"
 width="400.000000pt" height="400.000000pt" viewBox="0 0 400.000000 400.000000"
 preserveAspectRatio="xMidYMid meet">
<metadata>
Created by potrace 1.11, written by Peter Selinger 2001-2013
</metadata>
<g transform="translate(0.000000,400.000000) scale(0.100000,-0.100000)"
fill="#000000" stroke="none">
<path d="M0 2000 l0 -2000 2000 0 2000 0 0 2000 0 2000 -2000 0 -2000 0 0
-2000z m3420 5 c0 -916 -3 -1665 -7 -1665 -5 0 -324 61 -709 136 l-701 136
-699 -136 c-385 -75 -702 -136 -706 -136 -5 0 -8 749 -8 1665 l0 1665 1415 0
1415 0 0 -1665z"/>
<path d="M1086 3228 c-3 -24 -8 -101 -11 -173 -3 -71 -8 -163 -11 -202 l-6
-73 34 0 c33 0 33 0 46 66 16 83 43 137 96 192 81 86 147 101 434 102 l173 0
-3 -882 -3 -883 -25 -50 c-34 -68 -88 -95 -204 -102 -82 -6 -86 -7 -86 -29 l0
-24 480 0 480 0 0 24 c0 22 -4 23 -85 28 -101 7 -170 36 -197 84 -10 17 -23
64 -28 105 -5 42 -10 434 -10 903 l0 828 223 -4 c255 -6 304 -17 384 -91 60
-55 89 -108 106 -192 13 -69 14 -70 47 -73 l33 -3 -7 158 c-3 87 -9 197 -13
246 l-6 87 -918 0 -918 0 -5 -42z"/>
</g>
</svg>
