<svg xmlns="http://www.w3.org/2000/svg" viewBox="0 0 250 58.61"><defs><style>.cls-1{fill:#e15a5a;}</style></defs><title>Artboard 2</title><g id="T"><path class="cls-1" d="M59.93,17.5h1.69l2.55,6.43,2.58-6.43h1.71l-3.17,7.74,3.48,8.19,6.56-16.06h1.94L69.58,35.5H68l-3.8-9-3.84,9H58.81L51.14,17.37h1.92l6.59,16.06,3.45-8.19Z"/><path class="cls-1" d="M92,33.92V35.5H79.83V17.37h12V19H81.61v6.54h8.87V27H81.61v6.92Z"/><path class="cls-1" d="M97.17,20.69V35.5H95.38V17.37h1.38l12,15.09V17.39h1.79V35.5H109Z"/><path class="cls-1" d="M128,19h-6.46V35.5h-1.79V19h-6.46V17.37H128Z"/><path class="cls-1" d="M130.78,17.37l5.92,9.76,6-9.76h1.94l-7,11.39V35.5h-1.79V28.71l-7-11.34Z"/><path class="cls-1" d="M160.25,35.63a7.68,7.68,0,0,1-3.46-.78,8.57,8.57,0,0,1-2.69-2.07,9.39,9.39,0,0,1-1.74-3,9.67,9.67,0,0,1-.61-3.39A9.35,9.35,0,0,1,152.4,23,9.45,9.45,0,0,1,154.2,20a8.64,8.64,0,0,1,2.71-2,7.63,7.63,0,0,1,3.37-.75,7.44,7.44,0,0,1,3.46.81,8.51,8.51,0,0,1,2.68,2.1,9.63,9.63,0,0,1-.1,12.71,8.7,8.7,0,0,1-2.7,2A7.67,7.67,0,0,1,160.25,35.63Zm-6.72-9.19a8.52,8.52,0,0,0,.49,2.84,7.67,7.67,0,0,0,1.38,2.43,6.8,6.8,0,0,0,2.12,1.69,6,6,0,0,0,2.73.62,5.92,5.92,0,0,0,2.79-.66,6.76,6.76,0,0,0,2.12-1.74,8.19,8.19,0,0,0,1.34-2.43,8.41,8.41,0,0,0,.47-2.75,8.3,8.3,0,0,0-.5-2.85,7.93,7.93,0,0,0-1.39-2.42A7,7,0,0,0,163,19.5a6.25,6.25,0,0,0-5.49,0,6.59,6.59,0,0,0-2.12,1.72A8,8,0,0,0,154,23.68,8.18,8.18,0,0,0,153.53,26.44Z"/><path class="cls-1" d="M172.13,35.5V17.37H184V19H173.92v6.67h8.53V27.1h-8.53v8.4Z"/><path class="cls-1" d="M205.28,19h-6.46V35.5H197V19h-6.46V17.37h14.71Z"/><path class="cls-1" d="M208,35.5V17.37h1.78V35.5Z"/><path class="cls-1" d="M230.38,35.5V20.61l-6.61,11.52h-1.05l-6.61-11.52V35.5h-1.79V17.37h1.84l7.07,12.41,7.13-12.41h1.81V35.5Z"/><path class="cls-1" d="M248.9,33.92V35.5H236.72V17.37h11.95V19H238.51v6.54h8.86V27h-8.86v6.92Z"/><rect class="cls-1" x="3.28" y="-2.5" width="43" height="49" transform="translate(46.78 -2.78) rotate(90)"/><path d="M40.51,9.77l.43,7.83H39.85a8.5,8.5,0,0,0-.86-3,5.35,5.35,0,0,0-2.37-2.1,9.51,9.51,0,0,0-3.9-.68H27.23V37.37q0,3.08.78,3.84a4.79,4.79,0,0,0,3.36,1h1.35v.91H16.2v-.91h1.38A4.27,4.27,0,0,0,21.08,41c.42-.53.63-1.72.63-3.59V11.86H17a15.1,15.1,0,0,0-3.88.35A5.25,5.25,0,0,0,10.59,14a6.55,6.55,0,0,0-1.26,3.6H8.23l.46-7.83Z"/><polygon class="cls-1" points="49.28 56.75 49.28 42.5 0.28 42.5 0.28 56.75 24.78 51.98 24.78 51.98 49.28 56.75"/></g></svg>